<svg xmlns="http://www.w3.org/2000/svg" xmlns:xlink="http://www.w3.org/1999/xlink" width="697" height="632" viewBox="0 0 697 632">
  <defs>
    <clipPath id="clip-path">
      <rect width="697" height="632" fill="none"/>
    </clipPath>
    <filter id="bg" x="6" y="6" width="77" height="24" filterUnits="userSpaceOnUse">
      <feOffset dy="1" input="SourceAlpha"/>
      <feGaussianBlur stdDeviation="1" result="blur"/>
      <feFlood flood-opacity="0.161"/>
      <feComposite operator="in" in2="blur"/>
      <feComposite in="SourceGraphic"/>
    </filter>
    <filter id="bg-2" x="183" y="6" width="77" height="24" filterUnits="userSpaceOnUse">
      <feOffset dy="1" input="SourceAlpha"/>
      <feGaussianBlur stdDeviation="1" result="blur-2"/>
      <feFlood flood-opacity="0.161"/>
      <feComposite operator="in" in2="blur-2"/>
      <feComposite in="SourceGraphic"/>
    </filter>
    <filter id="bg-3" x="360" y="6" width="77" height="24" filterUnits="userSpaceOnUse">
      <feOffset dy="1" input="SourceAlpha"/>
      <feGaussianBlur stdDeviation="1" result="blur-3"/>
      <feFlood flood-opacity="0.161"/>
      <feComposite operator="in" in2="blur-3"/>
      <feComposite in="SourceGraphic"/>
    </filter>
    <filter id="bg-4" x="537" y="6" width="77" height="24" filterUnits="userSpaceOnUse">
      <feOffset dy="1" input="SourceAlpha"/>
      <feGaussianBlur stdDeviation="1" result="blur-4"/>
      <feFlood flood-opacity="0.161"/>
      <feComposite operator="in" in2="blur-4"/>
      <feComposite in="SourceGraphic"/>
    </filter>
    <filter id="bg-5" x="6" y="256" width="77" height="24" filterUnits="userSpaceOnUse">
      <feOffset dy="1" input="SourceAlpha"/>
      <feGaussianBlur stdDeviation="1" result="blur-5"/>
      <feFlood flood-opacity="0.161"/>
      <feComposite operator="in" in2="blur-5"/>
      <feComposite in="SourceGraphic"/>
    </filter>
    <filter id="bg-6" x="183" y="256" width="77" height="24" filterUnits="userSpaceOnUse">
      <feOffset dy="1" input="SourceAlpha"/>
      <feGaussianBlur stdDeviation="1" result="blur-6"/>
      <feFlood flood-opacity="0.161"/>
      <feComposite operator="in" in2="blur-6"/>
      <feComposite in="SourceGraphic"/>
    </filter>
    <filter id="bg-7" x="360" y="256" width="77" height="24" filterUnits="userSpaceOnUse">
      <feOffset dy="1" input="SourceAlpha"/>
      <feGaussianBlur stdDeviation="1" result="blur-7"/>
      <feFlood flood-opacity="0.161"/>
      <feComposite operator="in" in2="blur-7"/>
      <feComposite in="SourceGraphic"/>
    </filter>
    <filter id="bg-8" x="537" y="256" width="77" height="24" filterUnits="userSpaceOnUse">
      <feOffset dy="1" input="SourceAlpha"/>
      <feGaussianBlur stdDeviation="1" result="blur-8"/>
      <feFlood flood-opacity="0.161"/>
      <feComposite operator="in" in2="blur-8"/>
      <feComposite in="SourceGraphic"/>
    </filter>
    <filter id="bg-9" x="6" y="506" width="77" height="24" filterUnits="userSpaceOnUse">
      <feOffset dy="1" input="SourceAlpha"/>
      <feGaussianBlur stdDeviation="1" result="blur-9"/>
      <feFlood flood-opacity="0.161"/>
      <feComposite operator="in" in2="blur-9"/>
      <feComposite in="SourceGraphic"/>
    </filter>
    <filter id="bg-10" x="183" y="506" width="77" height="24" filterUnits="userSpaceOnUse">
      <feOffset dy="1" input="SourceAlpha"/>
      <feGaussianBlur stdDeviation="1" result="blur-10"/>
      <feFlood flood-opacity="0.161"/>
      <feComposite operator="in" in2="blur-10"/>
      <feComposite in="SourceGraphic"/>
    </filter>
    <filter id="bg-11" x="360" y="506" width="77" height="24" filterUnits="userSpaceOnUse">
      <feOffset dy="1" input="SourceAlpha"/>
      <feGaussianBlur stdDeviation="1" result="blur-11"/>
      <feFlood flood-opacity="0.161"/>
      <feComposite operator="in" in2="blur-11"/>
      <feComposite in="SourceGraphic"/>
    </filter>
    <filter id="bg-12" x="537" y="506" width="77" height="24" filterUnits="userSpaceOnUse">
      <feOffset dy="1" input="SourceAlpha"/>
      <feGaussianBlur stdDeviation="1" result="blur-12"/>
      <feFlood flood-opacity="0.161"/>
      <feComposite operator="in" in2="blur-12"/>
      <feComposite in="SourceGraphic"/>
    </filter>
  </defs>
  <g id="item" clip-path="url(#clip-path)">
    <g id="item-2" data-name="item" transform="translate(-16 -324)">
      <rect id="bg-13" data-name="bg" width="166" height="239" rx="10" transform="translate(16 324)" fill="#fff"/>
      <g id="plus" transform="translate(147 529)">
        <rect id="Rectangle_56" data-name="Rectangle 56" width="28" height="28" rx="14" fill="#0fa59a"/>
        <path id="Path_154" data-name="Path 154" d="M19,13H13v6H11V13H5V11h6V5h2v6h6Z" transform="translate(2 2)" fill="#e8f8f7"/>
      </g>
      <text id="Product_Title" data-name="Product Title" transform="translate(135 498)" fill="#363636" font-size="14" font-family="SegoeUI, Segoe UI"><tspan x="-103.968" y="0">مل</tspan><tspan y="0">250</tspan><tspan y="0">عصير تفاح </tspan></text>
      <g id="Group_202" data-name="Group 202" transform="translate(0 502.977)">
        <text id="Product_Title-2" data-name="Product Title" transform="translate(135 18.023)" fill="#363636" font-size="12" font-family="SegoeUI, Segoe UI"><tspan x="-79.031" y="0">:</tspan><tspan y="0">الكمية بالمخزون</tspan></text>
        <text id="Product_Title-3" data-name="Product Title" transform="translate(48 19.023)" fill="#13a69a" font-size="13" font-family="SegoeUI-Bold, Segoe UI" font-weight="700"><tspan x="-7.478" y="0">5</tspan></text>
      </g>
      <g id="Price" transform="translate(80 527.362)">
        <text id="ريال" transform="translate(18 17.638)" fill="#0fa59a" font-size="12" font-family="SegoeUI, Segoe UI"><tspan x="-21.041" y="0">ريال</tspan></text>
        <text id="_7.50" data-name="7.50" transform="translate(54 19.638)" fill="#0fa59a" font-size="15" font-family="SegoeUI-Bold, Segoe UI" font-weight="700"><tspan x="-29.949" y="0">7.50</tspan></text>
      </g>
      <g id="Cal_Label" data-name="Cal Label" transform="translate(25 332)">
        <g transform="matrix(1, 0, 0, 1, -9, -8)" filter="url(#bg)">
          <rect id="bg-14" data-name="bg" width="71" height="18" rx="3" transform="translate(9 8)" fill="#e8f8f7"/>
        </g>
        <path id="Path_24" data-name="Path 24" d="M9.477,3.94a1.23,1.23,0,1,0-1.23-1.23A1.233,1.233,0,0,0,9.477,3.94ZM7.528,11.319l.35-1.537,1.291,1.23v3.075a.615.615,0,1,0,1.23,0V10.618a1.223,1.223,0,0,0-.381-.892l-.91-.867.369-1.845A4.5,4.5,0,0,0,12.158,8.5a.615.615,0,0,0,.178-1.218,2.991,2.991,0,0,1-2.121-1.433L9.6,4.862a1.268,1.268,0,0,0-1.045-.615c-.184,0-.307.061-.492.061L5.616,5.342a1.236,1.236,0,0,0-.75,1.138V7.937a.615.615,0,0,0,1.23,0V6.461L7.2,6.03l-.984,4.981-2.41-.492a.616.616,0,0,0-.726.48v.025a.616.616,0,0,0,.48.726l2.527.5A1.23,1.23,0,0,0,7.528,11.319Z" transform="translate(1.966 0.753)" fill="#0fa59a"/>
        <text id="_200_Kcal" data-name="200 Kcal" transform="translate(21 13)" fill="#0fa59a" font-size="12" font-family="SegoeUI, Segoe UI"><tspan x="0" y="0">200 Kcal</tspan></text>
      </g>
      <g id="Information" transform="translate(152.086 332.085)">
        <path id="Path_160" data-name="Path 160" d="M0,0H17.829V17.829H0Z" fill="none"/>
        <path id="Path_161" data-name="Path 161" d="M8.686,5.714h1.486V7.2H8.686Zm0,2.971h1.486v4.457H8.686ZM9.429,2a7.429,7.429,0,1,0,7.429,7.429A7.431,7.431,0,0,0,9.429,2Zm0,13.372a5.943,5.943,0,1,1,5.943-5.943A5.951,5.951,0,0,1,9.429,15.372Z" transform="translate(-0.514 -0.514)" fill="rgba(15,165,154,0.41)"/>
      </g>
    </g>
    <g id="item-3" data-name="item" transform="translate(161 -324)">
      <rect id="bg-15" data-name="bg" width="166" height="239" rx="10" transform="translate(16 324)" fill="#fff"/>
      <g id="plus-2" data-name="plus" transform="translate(147 529)">
        <rect id="Rectangle_56-2" data-name="Rectangle 56" width="28" height="28" rx="14" fill="#0fa59a"/>
        <path id="Path_154-2" data-name="Path 154" d="M19,13H13v6H11V13H5V11h6V5h2v6h6Z" transform="translate(2 2)" fill="#e8f8f7"/>
      </g>
      <text id="Product_Title-4" data-name="Product Title" transform="translate(135 498)" fill="#363636" font-size="14" font-family="SegoeUI, Segoe UI"><tspan x="-103.968" y="0">مل</tspan><tspan y="0">250</tspan><tspan y="0">عصير تفاح </tspan></text>
      <g id="Group_202-2" data-name="Group 202" transform="translate(0 502.977)">
        <text id="Product_Title-5" data-name="Product Title" transform="translate(135 18.023)" fill="#363636" font-size="12" font-family="SegoeUI, Segoe UI"><tspan x="-79.031" y="0">:</tspan><tspan y="0">الكمية بالمخزون</tspan></text>
        <text id="Product_Title-6" data-name="Product Title" transform="translate(48 19.023)" fill="#13a69a" font-size="13" font-family="SegoeUI-Bold, Segoe UI" font-weight="700"><tspan x="-7.478" y="0">5</tspan></text>
      </g>
      <g id="Price-2" data-name="Price" transform="translate(80 527.362)">
        <text id="ريال-2" data-name="ريال" transform="translate(18 17.638)" fill="#0fa59a" font-size="12" font-family="SegoeUI, Segoe UI"><tspan x="-21.041" y="0">ريال</tspan></text>
        <text id="_7.50-2" data-name="7.50" transform="translate(54 19.638)" fill="#0fa59a" font-size="15" font-family="SegoeUI-Bold, Segoe UI" font-weight="700"><tspan x="-29.949" y="0">7.50</tspan></text>
      </g>
      <g id="Cal_Label-2" data-name="Cal Label" transform="translate(25 332)">
        <g transform="matrix(1, 0, 0, 1, -186, -8)" filter="url(#bg-2)">
          <rect id="bg-16" data-name="bg" width="71" height="18" rx="3" transform="translate(186 8)" fill="#e8f8f7"/>
        </g>
        <path id="Path_24-2" data-name="Path 24" d="M9.477,3.94a1.23,1.23,0,1,0-1.23-1.23A1.233,1.233,0,0,0,9.477,3.94ZM7.528,11.319l.35-1.537,1.291,1.23v3.075a.615.615,0,1,0,1.23,0V10.618a1.223,1.223,0,0,0-.381-.892l-.91-.867.369-1.845A4.5,4.5,0,0,0,12.158,8.5a.615.615,0,0,0,.178-1.218,2.991,2.991,0,0,1-2.121-1.433L9.6,4.862a1.268,1.268,0,0,0-1.045-.615c-.184,0-.307.061-.492.061L5.616,5.342a1.236,1.236,0,0,0-.75,1.138V7.937a.615.615,0,0,0,1.23,0V6.461L7.2,6.03l-.984,4.981-2.41-.492a.616.616,0,0,0-.726.48v.025a.616.616,0,0,0,.48.726l2.527.5A1.23,1.23,0,0,0,7.528,11.319Z" transform="translate(1.966 0.753)" fill="#0fa59a"/>
        <text id="_200_Kcal-2" data-name="200 Kcal" transform="translate(21 13)" fill="#0fa59a" font-size="12" font-family="SegoeUI, Segoe UI"><tspan x="0" y="0">200 Kcal</tspan></text>
      </g>
      <g id="Information-2" data-name="Information" transform="translate(152.086 332.085)">
        <path id="Path_160-2" data-name="Path 160" d="M0,0H17.829V17.829H0Z" fill="none"/>
        <path id="Path_161-2" data-name="Path 161" d="M8.686,5.714h1.486V7.2H8.686Zm0,2.971h1.486v4.457H8.686ZM9.429,2a7.429,7.429,0,1,0,7.429,7.429A7.431,7.431,0,0,0,9.429,2Zm0,13.372a5.943,5.943,0,1,1,5.943-5.943A5.951,5.951,0,0,1,9.429,15.372Z" transform="translate(-0.514 -0.514)" fill="rgba(15,165,154,0.41)"/>
      </g>
    </g>
    <g id="item-4" data-name="item" transform="translate(338 -324)">
      <rect id="bg-17" data-name="bg" width="166" height="239" rx="10" transform="translate(16 324)" fill="#fff"/>
      <g id="plus-3" data-name="plus" transform="translate(147 529)">
        <rect id="Rectangle_56-3" data-name="Rectangle 56" width="28" height="28" rx="14" fill="#0fa59a"/>
        <path id="Path_154-3" data-name="Path 154" d="M19,13H13v6H11V13H5V11h6V5h2v6h6Z" transform="translate(2 2)" fill="#e8f8f7"/>
      </g>
      <text id="Product_Title-7" data-name="Product Title" transform="translate(135 498)" fill="#363636" font-size="14" font-family="SegoeUI, Segoe UI"><tspan x="-103.968" y="0">مل</tspan><tspan y="0">250</tspan><tspan y="0">عصير تفاح </tspan></text>
      <g id="Group_202-3" data-name="Group 202" transform="translate(0 502.977)">
        <text id="Product_Title-8" data-name="Product Title" transform="translate(135 18.023)" fill="#363636" font-size="12" font-family="SegoeUI, Segoe UI"><tspan x="-79.031" y="0">:</tspan><tspan y="0">الكمية بالمخزون</tspan></text>
        <text id="Product_Title-9" data-name="Product Title" transform="translate(48 19.023)" fill="#13a69a" font-size="13" font-family="SegoeUI-Bold, Segoe UI" font-weight="700"><tspan x="-7.478" y="0">5</tspan></text>
      </g>
      <g id="Price-3" data-name="Price" transform="translate(80 527.362)">
        <text id="ريال-3" data-name="ريال" transform="translate(18 17.638)" fill="#0fa59a" font-size="12" font-family="SegoeUI, Segoe UI"><tspan x="-21.041" y="0">ريال</tspan></text>
        <text id="_7.50-3" data-name="7.50" transform="translate(54 19.638)" fill="#0fa59a" font-size="15" font-family="SegoeUI-Bold, Segoe UI" font-weight="700"><tspan x="-29.949" y="0">7.50</tspan></text>
      </g>
      <g id="Cal_Label-3" data-name="Cal Label" transform="translate(25 332)">
        <g transform="matrix(1, 0, 0, 1, -363, -8)" filter="url(#bg-3)">
          <rect id="bg-18" data-name="bg" width="71" height="18" rx="3" transform="translate(363 8)" fill="#e8f8f7"/>
        </g>
        <path id="Path_24-3" data-name="Path 24" d="M9.477,3.94a1.23,1.23,0,1,0-1.23-1.23A1.233,1.233,0,0,0,9.477,3.94ZM7.528,11.319l.35-1.537,1.291,1.23v3.075a.615.615,0,1,0,1.23,0V10.618a1.223,1.223,0,0,0-.381-.892l-.91-.867.369-1.845A4.5,4.5,0,0,0,12.158,8.5a.615.615,0,0,0,.178-1.218,2.991,2.991,0,0,1-2.121-1.433L9.6,4.862a1.268,1.268,0,0,0-1.045-.615c-.184,0-.307.061-.492.061L5.616,5.342a1.236,1.236,0,0,0-.75,1.138V7.937a.615.615,0,0,0,1.23,0V6.461L7.2,6.03l-.984,4.981-2.41-.492a.616.616,0,0,0-.726.48v.025a.616.616,0,0,0,.48.726l2.527.5A1.23,1.23,0,0,0,7.528,11.319Z" transform="translate(1.966 0.753)" fill="#0fa59a"/>
        <text id="_200_Kcal-3" data-name="200 Kcal" transform="translate(21 13)" fill="#0fa59a" font-size="12" font-family="SegoeUI, Segoe UI"><tspan x="0" y="0">200 Kcal</tspan></text>
      </g>
      <g id="Information-3" data-name="Information" transform="translate(152.086 332.085)">
        <path id="Path_160-3" data-name="Path 160" d="M0,0H17.829V17.829H0Z" fill="none"/>
        <path id="Path_161-3" data-name="Path 161" d="M8.686,5.714h1.486V7.2H8.686Zm0,2.971h1.486v4.457H8.686ZM9.429,2a7.429,7.429,0,1,0,7.429,7.429A7.431,7.431,0,0,0,9.429,2Zm0,13.372a5.943,5.943,0,1,1,5.943-5.943A5.951,5.951,0,0,1,9.429,15.372Z" transform="translate(-0.514 -0.514)" fill="rgba(15,165,154,0.41)"/>
      </g>
    </g>
    <g id="item-5" data-name="item" transform="translate(515 -324)">
      <rect id="bg-19" data-name="bg" width="166" height="239" rx="10" transform="translate(16 324)" fill="#fff"/>
      <g id="plus-4" data-name="plus" transform="translate(147 529)">
        <rect id="Rectangle_56-4" data-name="Rectangle 56" width="28" height="28" rx="14" fill="#0fa59a"/>
        <path id="Path_154-4" data-name="Path 154" d="M19,13H13v6H11V13H5V11h6V5h2v6h6Z" transform="translate(2 2)" fill="#e8f8f7"/>
      </g>
      <text id="Product_Title-10" data-name="Product Title" transform="translate(135 498)" fill="#363636" font-size="14" font-family="SegoeUI, Segoe UI"><tspan x="-103.968" y="0">مل</tspan><tspan y="0">250</tspan><tspan y="0">عصير تفاح </tspan></text>
      <g id="Group_202-4" data-name="Group 202" transform="translate(0 502.977)">
        <text id="Product_Title-11" data-name="Product Title" transform="translate(135 18.023)" fill="#363636" font-size="12" font-family="SegoeUI, Segoe UI"><tspan x="-79.031" y="0">:</tspan><tspan y="0">الكمية بالمخزون</tspan></text>
        <text id="Product_Title-12" data-name="Product Title" transform="translate(48 19.023)" fill="#13a69a" font-size="13" font-family="SegoeUI-Bold, Segoe UI" font-weight="700"><tspan x="-7.478" y="0">5</tspan></text>
      </g>
      <g id="Price-4" data-name="Price" transform="translate(80 527.362)">
        <text id="ريال-4" data-name="ريال" transform="translate(18 17.638)" fill="#0fa59a" font-size="12" font-family="SegoeUI, Segoe UI"><tspan x="-21.041" y="0">ريال</tspan></text>
        <text id="_7.50-4" data-name="7.50" transform="translate(54 19.638)" fill="#0fa59a" font-size="15" font-family="SegoeUI-Bold, Segoe UI" font-weight="700"><tspan x="-29.949" y="0">7.50</tspan></text>
      </g>
      <g id="Cal_Label-4" data-name="Cal Label" transform="translate(25 332)">
        <g transform="matrix(1, 0, 0, 1, -540, -8)" filter="url(#bg-4)">
          <rect id="bg-20" data-name="bg" width="71" height="18" rx="3" transform="translate(540 8)" fill="#e8f8f7"/>
        </g>
        <path id="Path_24-4" data-name="Path 24" d="M9.477,3.94a1.23,1.23,0,1,0-1.23-1.23A1.233,1.233,0,0,0,9.477,3.94ZM7.528,11.319l.35-1.537,1.291,1.23v3.075a.615.615,0,1,0,1.23,0V10.618a1.223,1.223,0,0,0-.381-.892l-.91-.867.369-1.845A4.5,4.5,0,0,0,12.158,8.5a.615.615,0,0,0,.178-1.218,2.991,2.991,0,0,1-2.121-1.433L9.6,4.862a1.268,1.268,0,0,0-1.045-.615c-.184,0-.307.061-.492.061L5.616,5.342a1.236,1.236,0,0,0-.75,1.138V7.937a.615.615,0,0,0,1.23,0V6.461L7.2,6.03l-.984,4.981-2.41-.492a.616.616,0,0,0-.726.48v.025a.616.616,0,0,0,.48.726l2.527.5A1.23,1.23,0,0,0,7.528,11.319Z" transform="translate(1.966 0.753)" fill="#0fa59a"/>
        <text id="_200_Kcal-4" data-name="200 Kcal" transform="translate(21 13)" fill="#0fa59a" font-size="12" font-family="SegoeUI, Segoe UI"><tspan x="0" y="0">200 Kcal</tspan></text>
      </g>
      <g id="Information-4" data-name="Information" transform="translate(152.086 332.085)">
        <path id="Path_160-4" data-name="Path 160" d="M0,0H17.829V17.829H0Z" fill="none"/>
        <path id="Path_161-4" data-name="Path 161" d="M8.686,5.714h1.486V7.2H8.686Zm0,2.971h1.486v4.457H8.686ZM9.429,2a7.429,7.429,0,1,0,7.429,7.429A7.431,7.431,0,0,0,9.429,2Zm0,13.372a5.943,5.943,0,1,1,5.943-5.943A5.951,5.951,0,0,1,9.429,15.372Z" transform="translate(-0.514 -0.514)" fill="rgba(15,165,154,0.41)"/>
      </g>
    </g>
    <g id="item-6" data-name="item" transform="translate(-16 -74)">
      <rect id="bg-21" data-name="bg" width="166" height="239" rx="10" transform="translate(16 324)" fill="#fff"/>
      <g id="plus-5" data-name="plus" transform="translate(147 529)">
        <rect id="Rectangle_56-5" data-name="Rectangle 56" width="28" height="28" rx="14" fill="#0fa59a"/>
        <path id="Path_154-5" data-name="Path 154" d="M19,13H13v6H11V13H5V11h6V5h2v6h6Z" transform="translate(2 2)" fill="#e8f8f7"/>
      </g>
      <text id="Product_Title-13" data-name="Product Title" transform="translate(135 498)" fill="#363636" font-size="14" font-family="SegoeUI, Segoe UI"><tspan x="-103.968" y="0">مل</tspan><tspan y="0">250</tspan><tspan y="0">عصير تفاح </tspan></text>
      <g id="Group_202-5" data-name="Group 202" transform="translate(0 502.977)">
        <text id="Product_Title-14" data-name="Product Title" transform="translate(135 18.023)" fill="#363636" font-size="12" font-family="SegoeUI, Segoe UI"><tspan x="-79.031" y="0">:</tspan><tspan y="0">الكمية بالمخزون</tspan></text>
        <text id="Product_Title-15" data-name="Product Title" transform="translate(48 19.023)" fill="#13a69a" font-size="13" font-family="SegoeUI-Bold, Segoe UI" font-weight="700"><tspan x="-7.478" y="0">5</tspan></text>
      </g>
      <g id="Price-5" data-name="Price" transform="translate(80 527.362)">
        <text id="ريال-5" data-name="ريال" transform="translate(18 17.638)" fill="#0fa59a" font-size="12" font-family="SegoeUI, Segoe UI"><tspan x="-21.041" y="0">ريال</tspan></text>
        <text id="_7.50-5" data-name="7.50" transform="translate(54 19.638)" fill="#0fa59a" font-size="15" font-family="SegoeUI-Bold, Segoe UI" font-weight="700"><tspan x="-29.949" y="0">7.50</tspan></text>
      </g>
      <g id="Cal_Label-5" data-name="Cal Label" transform="translate(25 332)">
        <g transform="matrix(1, 0, 0, 1, -9, -258)" filter="url(#bg-5)">
          <rect id="bg-22" data-name="bg" width="71" height="18" rx="3" transform="translate(9 258)" fill="#e8f8f7"/>
        </g>
        <path id="Path_24-5" data-name="Path 24" d="M9.477,3.94a1.23,1.23,0,1,0-1.23-1.23A1.233,1.233,0,0,0,9.477,3.94ZM7.528,11.319l.35-1.537,1.291,1.23v3.075a.615.615,0,1,0,1.23,0V10.618a1.223,1.223,0,0,0-.381-.892l-.91-.867.369-1.845A4.5,4.5,0,0,0,12.158,8.5a.615.615,0,0,0,.178-1.218,2.991,2.991,0,0,1-2.121-1.433L9.6,4.862a1.268,1.268,0,0,0-1.045-.615c-.184,0-.307.061-.492.061L5.616,5.342a1.236,1.236,0,0,0-.75,1.138V7.937a.615.615,0,0,0,1.23,0V6.461L7.2,6.03l-.984,4.981-2.41-.492a.616.616,0,0,0-.726.48v.025a.616.616,0,0,0,.48.726l2.527.5A1.23,1.23,0,0,0,7.528,11.319Z" transform="translate(1.966 0.753)" fill="#0fa59a"/>
        <text id="_200_Kcal-5" data-name="200 Kcal" transform="translate(21 13)" fill="#0fa59a" font-size="12" font-family="SegoeUI, Segoe UI"><tspan x="0" y="0">200 Kcal</tspan></text>
      </g>
      <g id="Information-5" data-name="Information" transform="translate(152.086 332.085)">
        <path id="Path_160-5" data-name="Path 160" d="M0,0H17.829V17.829H0Z" fill="none"/>
        <path id="Path_161-5" data-name="Path 161" d="M8.686,5.714h1.486V7.2H8.686Zm0,2.971h1.486v4.457H8.686ZM9.429,2a7.429,7.429,0,1,0,7.429,7.429A7.431,7.431,0,0,0,9.429,2Zm0,13.372a5.943,5.943,0,1,1,5.943-5.943A5.951,5.951,0,0,1,9.429,15.372Z" transform="translate(-0.514 -0.514)" fill="rgba(15,165,154,0.41)"/>
      </g>
    </g>
    <g id="item-7" data-name="item" transform="translate(161 -74)">
      <rect id="bg-23" data-name="bg" width="166" height="239" rx="10" transform="translate(16 324)" fill="#fff"/>
      <g id="plus-6" data-name="plus" transform="translate(147 529)">
        <rect id="Rectangle_56-6" data-name="Rectangle 56" width="28" height="28" rx="14" fill="#0fa59a"/>
        <path id="Path_154-6" data-name="Path 154" d="M19,13H13v6H11V13H5V11h6V5h2v6h6Z" transform="translate(2 2)" fill="#e8f8f7"/>
      </g>
      <text id="Product_Title-16" data-name="Product Title" transform="translate(135 498)" fill="#363636" font-size="14" font-family="SegoeUI, Segoe UI"><tspan x="-103.968" y="0">مل</tspan><tspan y="0">250</tspan><tspan y="0">عصير تفاح </tspan></text>
      <g id="Group_202-6" data-name="Group 202" transform="translate(0 502.977)">
        <text id="Product_Title-17" data-name="Product Title" transform="translate(135 18.023)" fill="#363636" font-size="12" font-family="SegoeUI, Segoe UI"><tspan x="-79.031" y="0">:</tspan><tspan y="0">الكمية بالمخزون</tspan></text>
        <text id="Product_Title-18" data-name="Product Title" transform="translate(48 19.023)" fill="#13a69a" font-size="13" font-family="SegoeUI-Bold, Segoe UI" font-weight="700"><tspan x="-7.478" y="0">5</tspan></text>
      </g>
      <g id="Price-6" data-name="Price" transform="translate(80 527.362)">
        <text id="ريال-6" data-name="ريال" transform="translate(18 17.638)" fill="#0fa59a" font-size="12" font-family="SegoeUI, Segoe UI"><tspan x="-21.041" y="0">ريال</tspan></text>
        <text id="_7.50-6" data-name="7.50" transform="translate(54 19.638)" fill="#0fa59a" font-size="15" font-family="SegoeUI-Bold, Segoe UI" font-weight="700"><tspan x="-29.949" y="0">7.50</tspan></text>
      </g>
      <g id="Cal_Label-6" data-name="Cal Label" transform="translate(25 332)">
        <g transform="matrix(1, 0, 0, 1, -186, -258)" filter="url(#bg-6)">
          <rect id="bg-24" data-name="bg" width="71" height="18" rx="3" transform="translate(186 258)" fill="#e8f8f7"/>
        </g>
        <path id="Path_24-6" data-name="Path 24" d="M9.477,3.94a1.23,1.23,0,1,0-1.23-1.23A1.233,1.233,0,0,0,9.477,3.94ZM7.528,11.319l.35-1.537,1.291,1.23v3.075a.615.615,0,1,0,1.23,0V10.618a1.223,1.223,0,0,0-.381-.892l-.91-.867.369-1.845A4.5,4.5,0,0,0,12.158,8.5a.615.615,0,0,0,.178-1.218,2.991,2.991,0,0,1-2.121-1.433L9.6,4.862a1.268,1.268,0,0,0-1.045-.615c-.184,0-.307.061-.492.061L5.616,5.342a1.236,1.236,0,0,0-.75,1.138V7.937a.615.615,0,0,0,1.23,0V6.461L7.2,6.03l-.984,4.981-2.41-.492a.616.616,0,0,0-.726.48v.025a.616.616,0,0,0,.48.726l2.527.5A1.23,1.23,0,0,0,7.528,11.319Z" transform="translate(1.966 0.753)" fill="#0fa59a"/>
        <text id="_200_Kcal-6" data-name="200 Kcal" transform="translate(21 13)" fill="#0fa59a" font-size="12" font-family="SegoeUI, Segoe UI"><tspan x="0" y="0">200 Kcal</tspan></text>
      </g>
      <g id="Information-6" data-name="Information" transform="translate(152.086 332.085)">
        <path id="Path_160-6" data-name="Path 160" d="M0,0H17.829V17.829H0Z" fill="none"/>
        <path id="Path_161-6" data-name="Path 161" d="M8.686,5.714h1.486V7.2H8.686Zm0,2.971h1.486v4.457H8.686ZM9.429,2a7.429,7.429,0,1,0,7.429,7.429A7.431,7.431,0,0,0,9.429,2Zm0,13.372a5.943,5.943,0,1,1,5.943-5.943A5.951,5.951,0,0,1,9.429,15.372Z" transform="translate(-0.514 -0.514)" fill="rgba(15,165,154,0.41)"/>
      </g>
    </g>
    <g id="item-8" data-name="item" transform="translate(338 -74)">
      <rect id="bg-25" data-name="bg" width="166" height="239" rx="10" transform="translate(16 324)" fill="#fff"/>
      <g id="plus-7" data-name="plus" transform="translate(147 529)">
        <rect id="Rectangle_56-7" data-name="Rectangle 56" width="28" height="28" rx="14" fill="#0fa59a"/>
        <path id="Path_154-7" data-name="Path 154" d="M19,13H13v6H11V13H5V11h6V5h2v6h6Z" transform="translate(2 2)" fill="#e8f8f7"/>
      </g>
      <text id="Product_Title-19" data-name="Product Title" transform="translate(135 498)" fill="#363636" font-size="14" font-family="SegoeUI, Segoe UI"><tspan x="-103.968" y="0">مل</tspan><tspan y="0">250</tspan><tspan y="0">عصير تفاح </tspan></text>
      <g id="Group_202-7" data-name="Group 202" transform="translate(0 502.977)">
        <text id="Product_Title-20" data-name="Product Title" transform="translate(135 18.023)" fill="#363636" font-size="12" font-family="SegoeUI, Segoe UI"><tspan x="-79.031" y="0">:</tspan><tspan y="0">الكمية بالمخزون</tspan></text>
        <text id="Product_Title-21" data-name="Product Title" transform="translate(48 19.023)" fill="#13a69a" font-size="13" font-family="SegoeUI-Bold, Segoe UI" font-weight="700"><tspan x="-7.478" y="0">5</tspan></text>
      </g>
      <g id="Price-7" data-name="Price" transform="translate(80 527.362)">
        <text id="ريال-7" data-name="ريال" transform="translate(18 17.638)" fill="#0fa59a" font-size="12" font-family="SegoeUI, Segoe UI"><tspan x="-21.041" y="0">ريال</tspan></text>
        <text id="_7.50-7" data-name="7.50" transform="translate(54 19.638)" fill="#0fa59a" font-size="15" font-family="SegoeUI-Bold, Segoe UI" font-weight="700"><tspan x="-29.949" y="0">7.50</tspan></text>
      </g>
      <g id="Cal_Label-7" data-name="Cal Label" transform="translate(25 332)">
        <g transform="matrix(1, 0, 0, 1, -363, -258)" filter="url(#bg-7)">
          <rect id="bg-26" data-name="bg" width="71" height="18" rx="3" transform="translate(363 258)" fill="#e8f8f7"/>
        </g>
        <path id="Path_24-7" data-name="Path 24" d="M9.477,3.94a1.23,1.23,0,1,0-1.23-1.23A1.233,1.233,0,0,0,9.477,3.94ZM7.528,11.319l.35-1.537,1.291,1.23v3.075a.615.615,0,1,0,1.23,0V10.618a1.223,1.223,0,0,0-.381-.892l-.91-.867.369-1.845A4.5,4.5,0,0,0,12.158,8.5a.615.615,0,0,0,.178-1.218,2.991,2.991,0,0,1-2.121-1.433L9.6,4.862a1.268,1.268,0,0,0-1.045-.615c-.184,0-.307.061-.492.061L5.616,5.342a1.236,1.236,0,0,0-.75,1.138V7.937a.615.615,0,0,0,1.23,0V6.461L7.2,6.03l-.984,4.981-2.41-.492a.616.616,0,0,0-.726.48v.025a.616.616,0,0,0,.48.726l2.527.5A1.23,1.23,0,0,0,7.528,11.319Z" transform="translate(1.966 0.753)" fill="#0fa59a"/>
        <text id="_200_Kcal-7" data-name="200 Kcal" transform="translate(21 13)" fill="#0fa59a" font-size="12" font-family="SegoeUI, Segoe UI"><tspan x="0" y="0">200 Kcal</tspan></text>
      </g>
      <g id="Information-7" data-name="Information" transform="translate(152.086 332.085)">
        <path id="Path_160-7" data-name="Path 160" d="M0,0H17.829V17.829H0Z" fill="none"/>
        <path id="Path_161-7" data-name="Path 161" d="M8.686,5.714h1.486V7.2H8.686Zm0,2.971h1.486v4.457H8.686ZM9.429,2a7.429,7.429,0,1,0,7.429,7.429A7.431,7.431,0,0,0,9.429,2Zm0,13.372a5.943,5.943,0,1,1,5.943-5.943A5.951,5.951,0,0,1,9.429,15.372Z" transform="translate(-0.514 -0.514)" fill="rgba(15,165,154,0.41)"/>
      </g>
    </g>
    <g id="item-9" data-name="item" transform="translate(515 -74)">
      <rect id="bg-27" data-name="bg" width="166" height="239" rx="10" transform="translate(16 324)" fill="#fff"/>
      <g id="plus-8" data-name="plus" transform="translate(147 529)">
        <rect id="Rectangle_56-8" data-name="Rectangle 56" width="28" height="28" rx="14" fill="#0fa59a"/>
        <path id="Path_154-8" data-name="Path 154" d="M19,13H13v6H11V13H5V11h6V5h2v6h6Z" transform="translate(2 2)" fill="#e8f8f7"/>
      </g>
      <text id="Product_Title-22" data-name="Product Title" transform="translate(135 498)" fill="#363636" font-size="14" font-family="SegoeUI, Segoe UI"><tspan x="-103.968" y="0">مل</tspan><tspan y="0">250</tspan><tspan y="0">عصير تفاح </tspan></text>
      <g id="Group_202-8" data-name="Group 202" transform="translate(0 502.977)">
        <text id="Product_Title-23" data-name="Product Title" transform="translate(135 18.023)" fill="#363636" font-size="12" font-family="SegoeUI, Segoe UI"><tspan x="-79.031" y="0">:</tspan><tspan y="0">الكمية بالمخزون</tspan></text>
        <text id="Product_Title-24" data-name="Product Title" transform="translate(48 19.023)" fill="#13a69a" font-size="13" font-family="SegoeUI-Bold, Segoe UI" font-weight="700"><tspan x="-7.478" y="0">5</tspan></text>
      </g>
      <g id="Price-8" data-name="Price" transform="translate(80 527.362)">
        <text id="ريال-8" data-name="ريال" transform="translate(18 17.638)" fill="#0fa59a" font-size="12" font-family="SegoeUI, Segoe UI"><tspan x="-21.041" y="0">ريال</tspan></text>
        <text id="_7.50-8" data-name="7.50" transform="translate(54 19.638)" fill="#0fa59a" font-size="15" font-family="SegoeUI-Bold, Segoe UI" font-weight="700"><tspan x="-29.949" y="0">7.50</tspan></text>
      </g>
      <g id="Cal_Label-8" data-name="Cal Label" transform="translate(25 332)">
        <g transform="matrix(1, 0, 0, 1, -540, -258)" filter="url(#bg-8)">
          <rect id="bg-28" data-name="bg" width="71" height="18" rx="3" transform="translate(540 258)" fill="#e8f8f7"/>
        </g>
        <path id="Path_24-8" data-name="Path 24" d="M9.477,3.94a1.23,1.23,0,1,0-1.23-1.23A1.233,1.233,0,0,0,9.477,3.94ZM7.528,11.319l.35-1.537,1.291,1.23v3.075a.615.615,0,1,0,1.23,0V10.618a1.223,1.223,0,0,0-.381-.892l-.91-.867.369-1.845A4.5,4.5,0,0,0,12.158,8.5a.615.615,0,0,0,.178-1.218,2.991,2.991,0,0,1-2.121-1.433L9.6,4.862a1.268,1.268,0,0,0-1.045-.615c-.184,0-.307.061-.492.061L5.616,5.342a1.236,1.236,0,0,0-.75,1.138V7.937a.615.615,0,0,0,1.23,0V6.461L7.2,6.03l-.984,4.981-2.41-.492a.616.616,0,0,0-.726.48v.025a.616.616,0,0,0,.48.726l2.527.5A1.23,1.23,0,0,0,7.528,11.319Z" transform="translate(1.966 0.753)" fill="#0fa59a"/>
        <text id="_200_Kcal-8" data-name="200 Kcal" transform="translate(21 13)" fill="#0fa59a" font-size="12" font-family="SegoeUI, Segoe UI"><tspan x="0" y="0">200 Kcal</tspan></text>
      </g>
      <g id="Information-8" data-name="Information" transform="translate(152.086 332.085)">
        <path id="Path_160-8" data-name="Path 160" d="M0,0H17.829V17.829H0Z" fill="none"/>
        <path id="Path_161-8" data-name="Path 161" d="M8.686,5.714h1.486V7.2H8.686Zm0,2.971h1.486v4.457H8.686ZM9.429,2a7.429,7.429,0,1,0,7.429,7.429A7.431,7.431,0,0,0,9.429,2Zm0,13.372a5.943,5.943,0,1,1,5.943-5.943A5.951,5.951,0,0,1,9.429,15.372Z" transform="translate(-0.514 -0.514)" fill="rgba(15,165,154,0.41)"/>
      </g>
    </g>
    <g id="item-10" data-name="item" transform="translate(-16 176)">
      <rect id="bg-29" data-name="bg" width="166" height="239" rx="10" transform="translate(16 324)" fill="#fff"/>
      <g id="plus-9" data-name="plus" transform="translate(147 529)">
        <rect id="Rectangle_56-9" data-name="Rectangle 56" width="28" height="28" rx="14" fill="#0fa59a"/>
        <path id="Path_154-9" data-name="Path 154" d="M19,13H13v6H11V13H5V11h6V5h2v6h6Z" transform="translate(2 2)" fill="#e8f8f7"/>
      </g>
      <text id="Product_Title-25" data-name="Product Title" transform="translate(135 498)" fill="#363636" font-size="14" font-family="SegoeUI, Segoe UI"><tspan x="-103.968" y="0">مل</tspan><tspan y="0">250</tspan><tspan y="0">عصير تفاح </tspan></text>
      <g id="Group_202-9" data-name="Group 202" transform="translate(0 502.977)">
        <text id="Product_Title-26" data-name="Product Title" transform="translate(135 18.023)" fill="#363636" font-size="12" font-family="SegoeUI, Segoe UI"><tspan x="-79.031" y="0">:</tspan><tspan y="0">الكمية بالمخزون</tspan></text>
        <text id="Product_Title-27" data-name="Product Title" transform="translate(48 19.023)" fill="#13a69a" font-size="13" font-family="SegoeUI-Bold, Segoe UI" font-weight="700"><tspan x="-7.478" y="0">5</tspan></text>
      </g>
      <g id="Price-9" data-name="Price" transform="translate(80 527.362)">
        <text id="ريال-9" data-name="ريال" transform="translate(18 17.638)" fill="#0fa59a" font-size="12" font-family="SegoeUI, Segoe UI"><tspan x="-21.041" y="0">ريال</tspan></text>
        <text id="_7.50-9" data-name="7.50" transform="translate(54 19.638)" fill="#0fa59a" font-size="15" font-family="SegoeUI-Bold, Segoe UI" font-weight="700"><tspan x="-29.949" y="0">7.50</tspan></text>
      </g>
      <g id="Cal_Label-9" data-name="Cal Label" transform="translate(25 332)">
        <g transform="matrix(1, 0, 0, 1, -9, -508)" filter="url(#bg-9)">
          <rect id="bg-30" data-name="bg" width="71" height="18" rx="3" transform="translate(9 508)" fill="#e8f8f7"/>
        </g>
        <path id="Path_24-9" data-name="Path 24" d="M9.477,3.94a1.23,1.23,0,1,0-1.23-1.23A1.233,1.233,0,0,0,9.477,3.94ZM7.528,11.319l.35-1.537,1.291,1.23v3.075a.615.615,0,1,0,1.23,0V10.618a1.223,1.223,0,0,0-.381-.892l-.91-.867.369-1.845A4.5,4.5,0,0,0,12.158,8.5a.615.615,0,0,0,.178-1.218,2.991,2.991,0,0,1-2.121-1.433L9.6,4.862a1.268,1.268,0,0,0-1.045-.615c-.184,0-.307.061-.492.061L5.616,5.342a1.236,1.236,0,0,0-.75,1.138V7.937a.615.615,0,0,0,1.23,0V6.461L7.2,6.03l-.984,4.981-2.41-.492a.616.616,0,0,0-.726.48v.025a.616.616,0,0,0,.48.726l2.527.5A1.23,1.23,0,0,0,7.528,11.319Z" transform="translate(1.966 0.753)" fill="#0fa59a"/>
        <text id="_200_Kcal-9" data-name="200 Kcal" transform="translate(21 13)" fill="#0fa59a" font-size="12" font-family="SegoeUI, Segoe UI"><tspan x="0" y="0">200 Kcal</tspan></text>
      </g>
      <g id="Information-9" data-name="Information" transform="translate(152.086 332.085)">
        <path id="Path_160-9" data-name="Path 160" d="M0,0H17.829V17.829H0Z" fill="none"/>
        <path id="Path_161-9" data-name="Path 161" d="M8.686,5.714h1.486V7.2H8.686Zm0,2.971h1.486v4.457H8.686ZM9.429,2a7.429,7.429,0,1,0,7.429,7.429A7.431,7.431,0,0,0,9.429,2Zm0,13.372a5.943,5.943,0,1,1,5.943-5.943A5.951,5.951,0,0,1,9.429,15.372Z" transform="translate(-0.514 -0.514)" fill="rgba(15,165,154,0.41)"/>
      </g>
    </g>
    <g id="item-11" data-name="item" transform="translate(161 176)">
      <rect id="bg-31" data-name="bg" width="166" height="239" rx="10" transform="translate(16 324)" fill="#fff"/>
      <g id="plus-10" data-name="plus" transform="translate(147 529)">
        <rect id="Rectangle_56-10" data-name="Rectangle 56" width="28" height="28" rx="14" fill="#0fa59a"/>
        <path id="Path_154-10" data-name="Path 154" d="M19,13H13v6H11V13H5V11h6V5h2v6h6Z" transform="translate(2 2)" fill="#e8f8f7"/>
      </g>
      <text id="Product_Title-28" data-name="Product Title" transform="translate(135 498)" fill="#363636" font-size="14" font-family="SegoeUI, Segoe UI"><tspan x="-103.968" y="0">مل</tspan><tspan y="0">250</tspan><tspan y="0">عصير تفاح </tspan></text>
      <g id="Group_202-10" data-name="Group 202" transform="translate(0 502.977)">
        <text id="Product_Title-29" data-name="Product Title" transform="translate(135 18.023)" fill="#363636" font-size="12" font-family="SegoeUI, Segoe UI"><tspan x="-79.031" y="0">:</tspan><tspan y="0">الكمية بالمخزون</tspan></text>
        <text id="Product_Title-30" data-name="Product Title" transform="translate(48 19.023)" fill="#13a69a" font-size="13" font-family="SegoeUI-Bold, Segoe UI" font-weight="700"><tspan x="-7.478" y="0">5</tspan></text>
      </g>
      <g id="Price-10" data-name="Price" transform="translate(80 527.362)">
        <text id="ريال-10" data-name="ريال" transform="translate(18 17.638)" fill="#0fa59a" font-size="12" font-family="SegoeUI, Segoe UI"><tspan x="-21.041" y="0">ريال</tspan></text>
        <text id="_7.50-10" data-name="7.50" transform="translate(54 19.638)" fill="#0fa59a" font-size="15" font-family="SegoeUI-Bold, Segoe UI" font-weight="700"><tspan x="-29.949" y="0">7.50</tspan></text>
      </g>
      <g id="Cal_Label-10" data-name="Cal Label" transform="translate(25 332)">
        <g transform="matrix(1, 0, 0, 1, -186, -508)" filter="url(#bg-10)">
          <rect id="bg-32" data-name="bg" width="71" height="18" rx="3" transform="translate(186 508)" fill="#e8f8f7"/>
        </g>
        <path id="Path_24-10" data-name="Path 24" d="M9.477,3.94a1.23,1.23,0,1,0-1.23-1.23A1.233,1.233,0,0,0,9.477,3.94ZM7.528,11.319l.35-1.537,1.291,1.23v3.075a.615.615,0,1,0,1.23,0V10.618a1.223,1.223,0,0,0-.381-.892l-.91-.867.369-1.845A4.5,4.5,0,0,0,12.158,8.5a.615.615,0,0,0,.178-1.218,2.991,2.991,0,0,1-2.121-1.433L9.6,4.862a1.268,1.268,0,0,0-1.045-.615c-.184,0-.307.061-.492.061L5.616,5.342a1.236,1.236,0,0,0-.75,1.138V7.937a.615.615,0,0,0,1.23,0V6.461L7.2,6.03l-.984,4.981-2.41-.492a.616.616,0,0,0-.726.48v.025a.616.616,0,0,0,.48.726l2.527.5A1.23,1.23,0,0,0,7.528,11.319Z" transform="translate(1.966 0.753)" fill="#0fa59a"/>
        <text id="_200_Kcal-10" data-name="200 Kcal" transform="translate(21 13)" fill="#0fa59a" font-size="12" font-family="SegoeUI, Segoe UI"><tspan x="0" y="0">200 Kcal</tspan></text>
      </g>
      <g id="Information-10" data-name="Information" transform="translate(152.086 332.085)">
        <path id="Path_160-10" data-name="Path 160" d="M0,0H17.829V17.829H0Z" fill="none"/>
        <path id="Path_161-10" data-name="Path 161" d="M8.686,5.714h1.486V7.2H8.686Zm0,2.971h1.486v4.457H8.686ZM9.429,2a7.429,7.429,0,1,0,7.429,7.429A7.431,7.431,0,0,0,9.429,2Zm0,13.372a5.943,5.943,0,1,1,5.943-5.943A5.951,5.951,0,0,1,9.429,15.372Z" transform="translate(-0.514 -0.514)" fill="rgba(15,165,154,0.41)"/>
      </g>
    </g>
    <g id="item-12" data-name="item" transform="translate(338 176)">
      <rect id="bg-33" data-name="bg" width="166" height="239" rx="10" transform="translate(16 324)" fill="#fff"/>
      <g id="plus-11" data-name="plus" transform="translate(147 529)">
        <rect id="Rectangle_56-11" data-name="Rectangle 56" width="28" height="28" rx="14" fill="#0fa59a"/>
        <path id="Path_154-11" data-name="Path 154" d="M19,13H13v6H11V13H5V11h6V5h2v6h6Z" transform="translate(2 2)" fill="#e8f8f7"/>
      </g>
      <text id="Product_Title-31" data-name="Product Title" transform="translate(135 498)" fill="#363636" font-size="14" font-family="SegoeUI, Segoe UI"><tspan x="-103.968" y="0">مل</tspan><tspan y="0">250</tspan><tspan y="0">عصير تفاح </tspan></text>
      <g id="Group_202-11" data-name="Group 202" transform="translate(0 502.977)">
        <text id="Product_Title-32" data-name="Product Title" transform="translate(135 18.023)" fill="#363636" font-size="12" font-family="SegoeUI, Segoe UI"><tspan x="-79.031" y="0">:</tspan><tspan y="0">الكمية بالمخزون</tspan></text>
        <text id="Product_Title-33" data-name="Product Title" transform="translate(48 19.023)" fill="#13a69a" font-size="13" font-family="SegoeUI-Bold, Segoe UI" font-weight="700"><tspan x="-7.478" y="0">5</tspan></text>
      </g>
      <g id="Price-11" data-name="Price" transform="translate(80 527.362)">
        <text id="ريال-11" data-name="ريال" transform="translate(18 17.638)" fill="#0fa59a" font-size="12" font-family="SegoeUI, Segoe UI"><tspan x="-21.041" y="0">ريال</tspan></text>
        <text id="_7.50-11" data-name="7.50" transform="translate(54 19.638)" fill="#0fa59a" font-size="15" font-family="SegoeUI-Bold, Segoe UI" font-weight="700"><tspan x="-29.949" y="0">7.50</tspan></text>
      </g>
      <g id="Cal_Label-11" data-name="Cal Label" transform="translate(25 332)">
        <g transform="matrix(1, 0, 0, 1, -363, -508)" filter="url(#bg-11)">
          <rect id="bg-34" data-name="bg" width="71" height="18" rx="3" transform="translate(363 508)" fill="#e8f8f7"/>
        </g>
        <path id="Path_24-11" data-name="Path 24" d="M9.477,3.94a1.23,1.23,0,1,0-1.23-1.23A1.233,1.233,0,0,0,9.477,3.94ZM7.528,11.319l.35-1.537,1.291,1.23v3.075a.615.615,0,1,0,1.23,0V10.618a1.223,1.223,0,0,0-.381-.892l-.91-.867.369-1.845A4.5,4.5,0,0,0,12.158,8.5a.615.615,0,0,0,.178-1.218,2.991,2.991,0,0,1-2.121-1.433L9.6,4.862a1.268,1.268,0,0,0-1.045-.615c-.184,0-.307.061-.492.061L5.616,5.342a1.236,1.236,0,0,0-.75,1.138V7.937a.615.615,0,0,0,1.23,0V6.461L7.2,6.03l-.984,4.981-2.41-.492a.616.616,0,0,0-.726.48v.025a.616.616,0,0,0,.48.726l2.527.5A1.23,1.23,0,0,0,7.528,11.319Z" transform="translate(1.966 0.753)" fill="#0fa59a"/>
        <text id="_200_Kcal-11" data-name="200 Kcal" transform="translate(21 13)" fill="#0fa59a" font-size="12" font-family="SegoeUI, Segoe UI"><tspan x="0" y="0">200 Kcal</tspan></text>
      </g>
      <g id="Information-11" data-name="Information" transform="translate(152.086 332.085)">
        <path id="Path_160-11" data-name="Path 160" d="M0,0H17.829V17.829H0Z" fill="none"/>
        <path id="Path_161-11" data-name="Path 161" d="M8.686,5.714h1.486V7.2H8.686Zm0,2.971h1.486v4.457H8.686ZM9.429,2a7.429,7.429,0,1,0,7.429,7.429A7.431,7.431,0,0,0,9.429,2Zm0,13.372a5.943,5.943,0,1,1,5.943-5.943A5.951,5.951,0,0,1,9.429,15.372Z" transform="translate(-0.514 -0.514)" fill="rgba(15,165,154,0.41)"/>
      </g>
    </g>
    <g id="item-13" data-name="item" transform="translate(515 176)">
      <rect id="bg-35" data-name="bg" width="166" height="239" rx="10" transform="translate(16 324)" fill="#fff"/>
      <g id="plus-12" data-name="plus" transform="translate(147 529)">
        <rect id="Rectangle_56-12" data-name="Rectangle 56" width="28" height="28" rx="14" fill="#0fa59a"/>
        <path id="Path_154-12" data-name="Path 154" d="M19,13H13v6H11V13H5V11h6V5h2v6h6Z" transform="translate(2 2)" fill="#e8f8f7"/>
      </g>
      <text id="Product_Title-34" data-name="Product Title" transform="translate(135 498)" fill="#363636" font-size="14" font-family="SegoeUI, Segoe UI"><tspan x="-103.968" y="0">مل</tspan><tspan y="0">250</tspan><tspan y="0">عصير تفاح </tspan></text>
      <g id="Group_202-12" data-name="Group 202" transform="translate(0 502.977)">
        <text id="Product_Title-35" data-name="Product Title" transform="translate(135 18.023)" fill="#363636" font-size="12" font-family="SegoeUI, Segoe UI"><tspan x="-79.031" y="0">:</tspan><tspan y="0">الكمية بالمخزون</tspan></text>
        <text id="Product_Title-36" data-name="Product Title" transform="translate(48 19.023)" fill="#13a69a" font-size="13" font-family="SegoeUI-Bold, Segoe UI" font-weight="700"><tspan x="-7.478" y="0">5</tspan></text>
      </g>
      <g id="Price-12" data-name="Price" transform="translate(80 527.362)">
        <text id="ريال-12" data-name="ريال" transform="translate(18 17.638)" fill="#0fa59a" font-size="12" font-family="SegoeUI, Segoe UI"><tspan x="-21.041" y="0">ريال</tspan></text>
        <text id="_7.50-12" data-name="7.50" transform="translate(54 19.638)" fill="#0fa59a" font-size="15" font-family="SegoeUI-Bold, Segoe UI" font-weight="700"><tspan x="-29.949" y="0">7.50</tspan></text>
      </g>
      <g id="Cal_Label-12" data-name="Cal Label" transform="translate(25 332)">
        <g transform="matrix(1, 0, 0, 1, -540, -508)" filter="url(#bg-12)">
          <rect id="bg-36" data-name="bg" width="71" height="18" rx="3" transform="translate(540 508)" fill="#e8f8f7"/>
        </g>
        <path id="Path_24-12" data-name="Path 24" d="M9.477,3.94a1.23,1.23,0,1,0-1.23-1.23A1.233,1.233,0,0,0,9.477,3.94ZM7.528,11.319l.35-1.537,1.291,1.23v3.075a.615.615,0,1,0,1.23,0V10.618a1.223,1.223,0,0,0-.381-.892l-.91-.867.369-1.845A4.5,4.5,0,0,0,12.158,8.5a.615.615,0,0,0,.178-1.218,2.991,2.991,0,0,1-2.121-1.433L9.6,4.862a1.268,1.268,0,0,0-1.045-.615c-.184,0-.307.061-.492.061L5.616,5.342a1.236,1.236,0,0,0-.75,1.138V7.937a.615.615,0,0,0,1.23,0V6.461L7.2,6.03l-.984,4.981-2.41-.492a.616.616,0,0,0-.726.48v.025a.616.616,0,0,0,.48.726l2.527.5A1.23,1.23,0,0,0,7.528,11.319Z" transform="translate(1.966 0.753)" fill="#0fa59a"/>
        <text id="_200_Kcal-12" data-name="200 Kcal" transform="translate(21 13)" fill="#0fa59a" font-size="12" font-family="SegoeUI, Segoe UI"><tspan x="0" y="0">200 Kcal</tspan></text>
      </g>
      <g id="Information-12" data-name="Information" transform="translate(152.086 332.085)">
        <path id="Path_160-12" data-name="Path 160" d="M0,0H17.829V17.829H0Z" fill="none"/>
        <path id="Path_161-12" data-name="Path 161" d="M8.686,5.714h1.486V7.2H8.686Zm0,2.971h1.486v4.457H8.686ZM9.429,2a7.429,7.429,0,1,0,7.429,7.429A7.431,7.431,0,0,0,9.429,2Zm0,13.372a5.943,5.943,0,1,1,5.943-5.943A5.951,5.951,0,0,1,9.429,15.372Z" transform="translate(-0.514 -0.514)" fill="rgba(15,165,154,0.41)"/>
      </g>
    </g>
  </g>
</svg>
