<svg xmlns="http://www.w3.org/2000/svg" width="22" height="25.144" viewBox="0 0 22 25.144">
  <g id="Notification_icon" data-name="Notification icon" transform="translate(-63.751 -30)">
    <path id="bell" d="M12,25.143A3.143,3.143,0,0,0,15.143,22H8.857A3.143,3.143,0,0,0,12,25.143ZM12,3.015l-1.252.253A6.289,6.289,0,0,0,5.714,9.429a34.1,34.1,0,0,1-.721,5.88,20.328,20.328,0,0,1-1.042,3.548h16.1a20.424,20.424,0,0,1-1.042-3.548,34.1,34.1,0,0,1-.721-5.88,6.289,6.289,0,0,0-5.033-6.16L12,3.013Zm9.774,15.843A4,4,0,0,0,23,20.429H1a4,4,0,0,0,1.226-1.571c1.414-2.829,1.917-8.046,1.917-9.429a7.86,7.86,0,0,1,6.294-7.7,1.571,1.571,0,1,1,3.127,0,7.86,7.86,0,0,1,6.294,7.7C19.857,10.812,20.36,16.029,21.774,18.858Z" transform="translate(62.751 30.001)" fill="#fff"/>
  </g>
</svg>
